<mxfile host="app.diagrams.net" modified="2023-08-11T07:46:24.749Z" agent="Mozilla/5.0 (Macintosh; Intel Mac OS X 10_15_7) AppleWebKit/605.1.15 (KHTML, like Gecko) Version/16.6 Safari/605.1.15" version="21.6.5" etag="rUP9UCL20i-2eT3bcByA" type="github">
  <diagram name="Page-1" id="egOM0iX9uyHVzgr4W5Y2">
    <mxGraphModel>
      <root>
        <mxCell id="0" />
        <mxCell id="1" parent="0" />
      </root>
    </mxGraphModel>
  </diagram>
</mxfile>
